<svg width="74" height="74" viewBox="0 0 74 74" fill="none" xmlns="http://www.w3.org/2000/svg">
<rect x="0.57251" y="0.11499" width="72.9" height="72.9" rx="12.15" fill="#3570EA"/>
<path d="M22.4426 25.63H18.7976V51.145C18.7976 53.1497 20.4379 54.79 22.4426 54.79H47.9576V51.145H22.4426V25.63Z" fill="white"/>
<path d="M51.6024 18.34H29.7324C27.7277 18.34 26.0874 19.9802 26.0874 21.985V43.855C26.0874 45.8597 27.7277 47.5 29.7324 47.5H51.6024C53.6072 47.5 55.2474 45.8597 55.2474 43.855V21.985C55.2474 19.9802 53.6072 18.34 51.6024 18.34ZM40.6856 42.0325C39.6104 42.0325 38.772 41.1759 38.772 40.1189C38.772 39.0436 39.6286 38.2235 40.6856 38.2235C41.7609 38.2235 42.581 39.0436 42.581 40.1189C42.5628 41.1759 41.7609 42.0325 40.6856 42.0325ZM45.2419 30.7877C44.0937 32.4826 43.0002 32.9929 42.3988 34.0864C42.1619 34.5238 42.0707 34.8154 42.0707 36.2369H39.3005C39.3005 35.4897 39.1912 34.2686 39.7744 33.2298C40.5216 31.8994 41.9249 31.1157 42.7451 29.9493C43.6199 28.71 43.1278 26.4137 40.6674 26.4137C39.0636 26.4137 38.2617 27.6347 37.9337 28.6553L35.4368 27.6165C36.1294 25.5571 37.9701 23.8075 40.6492 23.8075C42.8909 23.8075 44.44 24.8281 45.2237 26.1038C45.898 27.2156 46.2807 29.2568 45.2419 30.7877Z" fill="white"/>
</svg>
