<svg width="74" height="74" viewBox="0 0 74 74" fill="none" xmlns="http://www.w3.org/2000/svg">
<rect x="0.57251" y="0.86499" width="72.9" height="72.9" rx="12.15" fill="#3570EA"/>
<path d="M22.4426 26.38H18.7976V51.895C18.7976 53.8997 20.4379 55.54 22.4426 55.54H47.9576V51.895H22.4426V26.38Z" fill="white"/>
<path d="M51.6024 19.09H29.7324C27.7277 19.09 26.0874 20.7302 26.0874 22.735V44.605C26.0874 46.6097 27.7277 48.25 29.7324 48.25H51.6024C53.6072 48.25 55.2474 46.6097 55.2474 44.605V22.735C55.2474 20.7302 53.6072 19.09 51.6024 19.09ZM40.6856 42.7825C39.6104 42.7825 38.772 41.9259 38.772 40.8689C38.772 39.7936 39.6286 38.9735 40.6856 38.9735C41.7609 38.9735 42.581 39.7936 42.581 40.8689C42.5628 41.9259 41.7609 42.7825 40.6856 42.7825ZM45.2419 31.5377C44.0937 33.2326 43.0002 33.7429 42.3988 34.8364C42.1619 35.2738 42.0707 35.5654 42.0707 36.9869H39.3005C39.3005 36.2397 39.1912 35.0186 39.7744 33.9798C40.5216 32.6494 41.9249 31.8657 42.7451 30.6993C43.6199 29.46 43.1278 27.1637 40.6674 27.1637C39.0636 27.1637 38.2617 28.3847 37.9337 29.4053L35.4368 28.3665C36.1294 26.3071 37.9701 24.5575 40.6492 24.5575C42.8909 24.5575 44.44 25.5781 45.2237 26.8538C45.898 27.9656 46.2807 30.0068 45.2419 31.5377Z" fill="white"/>
</svg>
