<svg width="60" height="60" viewBox="0 0 60 60" fill="none" xmlns="http://www.w3.org/2000/svg">
<rect width="60" height="60" rx="10" fill="#3570EA"/>
<g clip-path="url(#clip0_32_66)">
<path d="M25 45C25 45.9167 25.75 46.6667 26.6667 46.6667H33.3334C34.25 46.6667 35 45.9167 35 45V43.3333H25V45ZM30 13.3333C23.5667 13.3333 18.3334 18.5667 18.3334 25C18.3334 28.9667 20.3167 32.45 23.3334 34.5667V38.3333C23.3334 39.25 24.0834 40 25 40H35C35.9167 40 36.6667 39.25 36.6667 38.3333V34.5667C39.6834 32.45 41.6667 28.9667 41.6667 25C41.6667 18.5667 36.4334 13.3333 30 13.3333ZM33.3334 32.8333V36.6667H26.6667V32.8333C24.1334 31.05 21.6667 29.2167 21.6667 25C21.6667 20.4 25.4 16.6667 30 16.6667C34.6 16.6667 38.3334 20.4 38.3334 25C38.3334 29.15 35.8167 31.0833 33.3334 32.8333Z" fill="white"/>
</g>
<defs>
<clipPath id="clip0_32_66">
<rect width="40" height="40" fill="white" transform="translate(10 10)"/>
</clipPath>
</defs>
</svg>
