<svg width="40" height="49" viewBox="0 0 40 49" fill="none" xmlns="http://www.w3.org/2000/svg">
<path d="M34.4824 16.6075H32.0524V11.9789C32.0524 5.59147 26.6092 0.407471 19.9024 0.407471C13.1956 0.407471 7.7524 5.59147 7.7524 11.9789V16.6075H5.3224C2.6494 16.6075 0.462402 18.6903 0.462402 21.236V44.3789C0.462402 46.9246 2.6494 49.0075 5.3224 49.0075H34.4824C37.1554 49.0075 39.3424 46.9246 39.3424 44.3789V21.236C39.3424 18.6903 37.1554 16.6075 34.4824 16.6075ZM19.9024 37.436C17.2294 37.436 15.0424 35.3532 15.0424 32.8075C15.0424 30.2618 17.2294 28.1789 19.9024 28.1789C22.5754 28.1789 24.7624 30.2618 24.7624 32.8075C24.7624 35.3532 22.5754 37.436 19.9024 37.436ZM27.4354 16.6075H12.3694V11.9789C12.3694 8.02147 15.7471 4.80461 19.9024 4.80461C24.0577 4.80461 27.4354 8.02147 27.4354 11.9789V16.6075Z" fill="black"/>
</svg>
