<svg width="40" height="50" viewBox="0 0 40 50" fill="none" xmlns="http://www.w3.org/2000/svg">
<path d="M34.4824 16.8575H32.0524V12.2289C32.0524 5.84147 26.6092 0.657471 19.9024 0.657471C13.1956 0.657471 7.7524 5.84147 7.7524 12.2289V16.8575H5.3224C2.6494 16.8575 0.462402 18.9403 0.462402 21.486V44.6289C0.462402 47.1746 2.6494 49.2575 5.3224 49.2575H34.4824C37.1554 49.2575 39.3424 47.1746 39.3424 44.6289V21.486C39.3424 18.9403 37.1554 16.8575 34.4824 16.8575ZM19.9024 37.686C17.2294 37.686 15.0424 35.6032 15.0424 33.0575C15.0424 30.5118 17.2294 28.4289 19.9024 28.4289C22.5754 28.4289 24.7624 30.5118 24.7624 33.0575C24.7624 35.6032 22.5754 37.686 19.9024 37.686ZM27.4354 16.8575H12.3694V12.2289C12.3694 8.27147 15.7471 5.05461 19.9024 5.05461C24.0577 5.05461 27.4354 8.27147 27.4354 12.2289V16.8575Z" fill="black"/>
</svg>
