<svg width="73" height="74" viewBox="0 0 73 74" fill="none" xmlns="http://www.w3.org/2000/svg">
<rect y="0.11499" width="72.9" height="72.9" rx="12.15" fill="#3570EA"/>
<path d="M30.3749 54.79C30.3749 55.9037 31.2862 56.815 32.3999 56.815H40.4999C41.6137 56.815 42.5249 55.9037 42.5249 54.79V52.765H30.3749V54.79ZM36.4499 16.315C28.6334 16.315 22.2749 22.6735 22.2749 30.49C22.2749 35.3095 24.6847 39.5417 28.3499 42.1135V46.69C28.3499 47.8037 29.2612 48.715 30.3749 48.715H42.5249C43.6387 48.715 44.5499 47.8037 44.5499 46.69V42.1135C48.2152 39.5417 50.6249 35.3095 50.6249 30.49C50.6249 22.6735 44.2664 16.315 36.4499 16.315ZM40.4999 40.0075V44.665H32.3999V40.0075C29.3219 37.8407 26.3249 35.6132 26.3249 30.49C26.3249 24.901 30.8609 20.365 36.4499 20.365C42.0389 20.365 46.5749 24.901 46.5749 30.49C46.5749 35.5322 43.5172 37.8812 40.4999 40.0075Z" fill="white"/>
</svg>
