<svg width="73" height="74" viewBox="0 0 73 74" fill="none" xmlns="http://www.w3.org/2000/svg">
<rect y="0.86499" width="72.9" height="72.9" rx="12.15" fill="#3570EA"/>
<path d="M30.3749 55.54C30.3749 56.6537 31.2862 57.565 32.3999 57.565H40.4999C41.6137 57.565 42.5249 56.6537 42.5249 55.54V53.515H30.3749V55.54ZM36.4499 17.065C28.6334 17.065 22.2749 23.4235 22.2749 31.24C22.2749 36.0595 24.6847 40.2917 28.3499 42.8635V47.44C28.3499 48.5537 29.2612 49.465 30.3749 49.465H42.5249C43.6387 49.465 44.5499 48.5537 44.5499 47.44V42.8635C48.2152 40.2917 50.6249 36.0595 50.6249 31.24C50.6249 23.4235 44.2664 17.065 36.4499 17.065ZM40.4999 40.7575V45.415H32.3999V40.7575C29.3219 38.5907 26.3249 36.3632 26.3249 31.24C26.3249 25.651 30.8609 21.115 36.4499 21.115C42.0389 21.115 46.5749 25.651 46.5749 31.24C46.5749 36.2822 43.5172 38.6312 40.4999 40.7575Z" fill="white"/>
</svg>
