<svg width="38" height="37" viewBox="0 0 38 37" fill="none" xmlns="http://www.w3.org/2000/svg">
<path d="M16.3459 21.6105L12.3819 17.6466C12.0478 17.3124 11.6377 17.1454 11.1517 17.1454C10.6657 17.1454 10.2405 17.3276 9.87599 17.6921C9.54186 18.0262 9.3748 18.4515 9.3748 18.9679C9.3748 19.4842 9.54186 19.9095 9.87599 20.2436L15.0701 25.4377C15.4042 25.7719 15.8295 25.9389 16.3459 25.9389C16.8622 25.9389 17.2875 25.7719 17.6216 25.4377L27.9643 15.0951C28.2984 14.7609 28.4655 14.3509 28.4655 13.8649C28.4655 13.3789 28.2832 12.9536 27.9187 12.5891C27.5846 12.255 27.1594 12.0879 26.643 12.0879C26.1266 12.0879 25.7014 12.255 25.3672 12.5891L16.3459 21.6105ZM18.8974 36.555C16.3762 36.555 14.007 36.0763 11.7896 35.1189C9.57224 34.1627 7.64343 32.8644 6.00318 31.2242C4.36293 29.5839 3.0647 27.6551 2.10849 25.4377C1.15107 23.2204 0.672363 20.8511 0.672363 18.33C0.672363 15.8089 1.15107 13.4396 2.10849 11.2222C3.0647 9.00487 4.36293 7.07606 6.00318 5.43581C7.64343 3.79556 9.57224 2.49672 11.7896 1.5393C14.007 0.583098 16.3762 0.104996 18.8974 0.104996C21.4185 0.104996 23.7877 0.583098 26.0051 1.5393C28.2225 2.49672 30.1513 3.79556 31.7916 5.43581C33.4318 7.07606 34.73 9.00487 35.6862 11.2222C36.6437 13.4396 37.1224 15.8089 37.1224 18.33C37.1224 20.8511 36.6437 23.2204 35.6862 25.4377C34.73 27.6551 33.4318 29.5839 31.7916 31.2242C30.1513 32.8644 28.2225 34.1627 26.0051 35.1189C23.7877 36.0763 21.4185 36.555 18.8974 36.555Z" fill="#4DDEAB"/>
</svg>
