<svg width="38" height="38" viewBox="0 0 38 38" fill="none" xmlns="http://www.w3.org/2000/svg">
<path d="M16.3459 22.3605L12.3819 18.3966C12.0478 18.0624 11.6377 17.8954 11.1517 17.8954C10.6657 17.8954 10.2405 18.0776 9.87599 18.4421C9.54186 18.7762 9.3748 19.2015 9.3748 19.7179C9.3748 20.2342 9.54186 20.6595 9.87599 20.9936L15.0701 26.1877C15.4042 26.5219 15.8295 26.6889 16.3459 26.6889C16.8622 26.6889 17.2875 26.5219 17.6216 26.1877L27.9643 15.8451C28.2984 15.5109 28.4655 15.1009 28.4655 14.6149C28.4655 14.1289 28.2832 13.7036 27.9187 13.3391C27.5846 13.005 27.1594 12.8379 26.643 12.8379C26.1266 12.8379 25.7014 13.005 25.3672 13.3391L16.3459 22.3605ZM18.8974 37.305C16.3762 37.305 14.007 36.8263 11.7896 35.8689C9.57224 34.9127 7.64343 33.6144 6.00318 31.9742C4.36293 30.3339 3.0647 28.4051 2.10849 26.1877C1.15107 23.9704 0.672363 21.6011 0.672363 19.08C0.672363 16.5589 1.15107 14.1896 2.10849 11.9722C3.0647 9.75487 4.36293 7.82606 6.00318 6.18581C7.64343 4.54556 9.57224 3.24672 11.7896 2.2893C14.007 1.3331 16.3762 0.854996 18.8974 0.854996C21.4185 0.854996 23.7877 1.3331 26.0051 2.2893C28.2225 3.24672 30.1513 4.54556 31.7916 6.18581C33.4318 7.82606 34.73 9.75487 35.6862 11.9722C36.6437 14.1896 37.1224 16.5589 37.1224 19.08C37.1224 21.6011 36.6437 23.9704 35.6862 26.1877C34.73 28.4051 33.4318 30.3339 31.7916 31.9742C30.1513 33.6144 28.2225 34.9127 26.0051 35.8689C23.7877 36.8263 21.4185 37.305 18.8974 37.305Z" fill="#4DDEAB"/>
</svg>
